<?xml version="1.0" encoding="utf-8"?>
<!-- Generator: Adobe Illustrator 27.5.0, SVG Export Plug-In . SVG Version: 6.00 Build 0)  -->
<svg version="1.1" id="Layer_1" xmlns="http://www.w3.org/2000/svg" xmlns:xlink="http://www.w3.org/1999/xlink" x="0px" y="0px"
	 viewBox="0 0 800 800" style="enable-background:new 0 0 800 800;" xml:space="preserve">
<rect style="fill:#FFFFFF;" width="800" height="800"/>
<g>
	
		<radialGradient id="SVGID_1_" cx="820.0972" cy="340.0876" r="65.0025" fx="777.7764" fy="333.8484" gradientTransform="matrix(3.2415 0 0 0.3962 -2131.3562 539.384)" gradientUnits="userSpaceOnUse">
		<stop  offset="0" style="stop-color:#ADAAB3"/>
		<stop  offset="0.2235" style="stop-color:#C7C4CB"/>
		<stop  offset="0.5447" style="stop-color:#E5E4E7"/>
		<stop  offset="0.8151" style="stop-color:#F8F8F9"/>
		<stop  offset="1" style="stop-color:#FFFFFF"/>
	</radialGradient>
	<path style="fill:url(#SVGID_1_);" d="M739.752,676.315c0,14.242-94.336,25.784-210.693,25.784
		c-116.387,0-210.731-11.542-210.731-25.784c0-14.24,94.344-25.774,210.731-25.774C645.416,650.541,739.752,662.075,739.752,676.315
		z"/>
	<g>
		<g>
			
				<linearGradient id="SVGID_00000140699146811874549500000013464153229331877525_" gradientUnits="userSpaceOnUse" x1="2714.1792" y1="-378.4944" x2="2712.7683" y2="12.3836" gradientTransform="matrix(0.6434 -0.1723 0.1723 0.6434 -1198.6219 989.4378)">
				<stop  offset="0.0057" style="stop-color:#EFCA9F"/>
				<stop  offset="1" style="stop-color:#C5955F"/>
			</linearGradient>
			<path style="fill:url(#SVGID_00000140699146811874549500000013464153229331877525_);" d="M697.205,468.532
				c4.625,17.256-5.619,35.008-22.889,39.633l-244.004,65.381c-17.266,4.627-35.028-5.618-39.654-22.874l-54.716-204.223
				c-4.626-17.265,5.63-35.017,22.895-39.643l244.004-65.377c17.275-4.636,35.018,5.62,39.643,22.885L697.205,468.532z"/>
			<path style="fill:#F6E3CF;" d="M604.605,248.034L360.603,313.41c-13.594,3.642-21.693,17.671-18.052,31.265l3.748,13.987
				c-3.651-13.613,4.453-27.631,18.051-31.273l244.003-65.378c13.606-3.651,27.627,4.444,31.27,18.046l-3.744-13.979
				C632.238,252.486,618.209,244.38,604.605,248.034z"/>
			
				<linearGradient id="SVGID_00000137132208709735198810000015553372735110523058_" gradientUnits="userSpaceOnUse" x1="2709.7886" y1="-385.7689" x2="2711.1997" y2="-253.125" gradientTransform="matrix(0.6434 -0.1723 0.1723 0.6434 -1196.6904 988.9202)">
				<stop  offset="0" style="stop-color:#DBBD97"/>
				<stop  offset="0.089" style="stop-color:#D5B590"/>
				<stop  offset="0.3467" style="stop-color:#C8A582"/>
				<stop  offset="0.6327" style="stop-color:#C09B79"/>
				<stop  offset="1" style="stop-color:#BE9876"/>
			</linearGradient>
			<path style="fill:url(#SVGID_00000137132208709735198810000015553372735110523058_);" d="M530.83,350.539
				c-4.768-5.946,0.85-11.708,8.297-13.513l-4.961-18.523l-0.35-0.314l0.223-0.142l-14.541-54.291L442.18,284.47l20.74,77.41
				c1.096-1.888,2.592-4.16,3.555-4.464c5.393,4.829,10.297,4.362,13.94-0.466c0.603,1.299,0.982,2.566,1.385,3.833l1.855-0.567
				c1.395-3.805,3.795-7.731,4.609-11.189c0.934,1.066,1.949,3.196,2.938,4.281c2.014,0.417,3.607,0.395,4.863-0.062
				c-0.363-3.123-0.709-6.572-0.58-10.934c0.094-3.987,0.338-8.47,0.75-13.014l0.268-0.071l6.734,25.117l12.022-3.611
				c0.037,0.212,0.086,0.426,0.117,0.628c0.305,1.268,0.654,1.897,1.01,2.282C521.617,352.871,527.117,352.17,530.83,350.539z"/>
			<polygon style="fill:#E0D1BA;" points="443.945,291.083 447.699,305.053 525.012,284.337 521.264,270.36 			"/>
			<g>
				<polygon style="fill:#82745D;" points="555.815,521.913 551.725,523.009 533.973,456.776 538.074,455.681 				"/>
				
					<rect x="548.414" y="453.549" transform="matrix(0.9661 -0.258 0.258 0.9661 -107.2288 158.5656)" style="fill:#82745D;" width="4.239" height="68.57"/>
				
					<rect x="557.527" y="451.113" transform="matrix(0.9661 -0.2581 0.2581 0.9661 -106.319 160.8901)" style="fill:#82745D;" width="4.241" height="68.571"/>
				<polygon style="fill:#82745D;" points="573.354,517.217 571.709,517.665 553.957,451.431 555.6,450.984 				"/>
				<polygon style="fill:#82745D;" points="578.344,515.879 576.512,516.375 558.766,450.143 560.602,449.646 				"/>
				<polygon style="fill:#82745D;" points="582.674,514.722 581.215,515.106 563.473,448.873 564.928,448.489 				"/>
				
					<rect x="584.425" y="443.902" transform="matrix(0.9659 -0.2588 0.2588 0.9659 -103.7601 168.0639)" style="fill:#82745D;" width="4.241" height="68.568"/>
				
					<rect x="592.505" y="441.486" transform="matrix(0.9657 -0.2598 0.2598 0.9657 -103.1518 171.0553)" style="fill:#82745D;" width="6.109" height="68.569"/>
				<polygon style="fill:#82745D;" points="615.629,505.883 613.072,506.572 595.324,440.342 597.881,439.653 				"/>
				<polygon style="fill:#82745D;" points="620.4,504.605 617.846,505.294 600.103,439.065 602.658,438.376 				"/>
				
					<rect x="613.394" y="435.832" transform="matrix(0.9659 -0.2588 0.2588 0.9659 -100.653 175.6001)" style="fill:#82745D;" width="6.54" height="68.567"/>
				
					<rect x="625.21" y="432.977" transform="matrix(0.9662 -0.2579 0.2579 0.9662 -99.2868 177.6002)" style="fill:#82745D;" width="4.242" height="68.567"/>
				<polygon style="fill:#82745D;" points="643.021,498.549 641.48,498.965 623.732,432.726 625.269,432.319 				"/>
				
					<rect x="640.266" y="428.914" transform="matrix(0.9661 -0.2582 0.2582 0.9661 -97.8089 181.591)" style="fill:#82745D;" width="4.452" height="68.566"/>
				<polygon style="fill:#82745D;" points="659.455,494.147 656.898,494.825 639.152,428.596 641.709,427.916 				"/>
				
					<rect x="655.492" y="424.547" transform="matrix(0.9661 -0.2582 0.2582 0.9661 -96.1379 185.676)" style="fill:#82745D;" width="6.601" height="68.567"/>
				
					<rect x="663.637" y="422.448" transform="matrix(0.9661 -0.2581 0.2581 0.9661 -95.3017 187.5475)" style="fill:#82745D;" width="5.977" height="68.566"/>
			</g>
			<path style="fill:#82745D;" d="M597.912,322.065l-22.779-32.919c-0.654-0.943-1.344-1.399-1.871-1.257
				c-0.549,0.142-0.912,0.882-1,2.028l-3.26,39.897c-0.162,2.049,0.465,3.703,0.75,4.321c0.289,0.628,1.055,2.038,2.033,1.774
				l4.611-1.238l0,0c0,0.02,4.859,18.139,4.859,18.139c0.779,2.921,2.332,5.051,3.441,4.757l13.492-3.622
				c1.113-0.294,1.391-2.911,0.604-5.833c0,0-4.854-18.127-4.858-18.137l0,0l4.609-1.237c0.979-0.264,0.94-1.855,0.873-2.546
				C599.352,325.512,599.074,323.758,597.912,322.065z"/>
			<path style="fill:#82745D;" d="M633.394,312.56l-22.762-32.928c-0.66-0.933-1.34-1.39-1.889-1.248
				c-0.535,0.143-0.896,0.873-0.994,2.018l-3.256,39.907c-0.162,2.05,0.467,3.692,0.758,4.322c0.287,0.629,1.039,2.028,2.023,1.765
				l4.604-1.228h0.006c0.004,0.01,4.865,18.139,4.865,18.139c0.781,2.921,2.322,5.051,3.447,4.746l13.477-3.611
				c1.121-0.294,1.395-2.921,0.613-5.843c0,0-4.854-18.117-4.857-18.137l0,0l4.613-1.237c0.975-0.254,0.93-1.857,0.863-2.536
				C634.834,315.997,634.563,314.253,633.394,312.56z"/>
			<g>
				<path style="fill:#82745D;" d="M430.43,533.031c-6.371,15.134,5.832,13.705,5.832,13.705l13.77-2.972l-4.193-13.675
					L430.43,533.031z"/>
				<path style="fill:#82745D;" d="M423.988,494.553l-4.516,12.822l14.613,3.056l5.383-14.164
					C429.07,483.771,423.988,494.553,423.988,494.553z"/>
				<path style="fill:#82745D;" d="M479.004,508.665l-9.25-9.841l-10.424,10.633l10.033,11.211
					C486.135,518.029,479.004,508.665,479.004,508.665z"/>
				<path style="fill:#82745D;" d="M460.338,524.804l-1.166-4.208l-5.25,14.586l13.252,9.28l-1.58-4.889l10.305-3.255l4.18-17.084
					C480.291,522.653,460.338,524.804,460.338,524.804z"/>
				<path style="fill:#82745D;" d="M460.744,495.782l1.344-10.135l-3.678,3.844l-7.871-6.817l-16.99,5.316
					c2.414-0.244,7.846,5.913,11.199,10.01v0.012c1.652,2.029,2.799,3.56,2.799,3.56l-3.281,3.175l1.061-0.221l14.678-3.066
					L460.744,495.782z"/>
				<path style="fill:#82745D;" d="M431.387,523.586l4.436,1.037l-5.723-6.149l-4.768-5.162L410,519.863l5.258,1.025l-2.445,10.084
					l2.34,2.027l10.584,9.252C423.705,539.453,431.387,523.586,431.387,523.586z"/>
			</g>
		</g>
		<g>
			
				<linearGradient id="SVGID_00000060730788116395210130000010721107849223885759_" gradientUnits="userSpaceOnUse" x1="-442.9097" y1="307.2202" x2="-437.5739" y2="596.5335" gradientTransform="matrix(1.3434 -0.36 0.36 1.3434 849.6171 -378.4546)">
				<stop  offset="0" style="stop-color:#C8C8CD"/>
				<stop  offset="0.71" style="stop-color:#7B787B"/>
				<stop  offset="1" style="stop-color:#5A5658"/>
			</linearGradient>
			<path style="fill:url(#SVGID_00000060730788116395210130000010721107849223885759_);" d="M737.551,515.755
				c-3.154-11.799-15.297-18.809-27.096-15.653L517.91,551.697c-1.576-22.237-8.621-56.252-35.082-78.945
				c-24.959-21.412-60.793-27.499-106.593-18.258c-56.705-105.783-152.688-234.55-273.087-202.293l10.083,37.625
				c35.109-9.405,69.883-0.933,106.304,25.908c19.63,14.465,39.304,34.103,58.79,58.633c-8.765,19.932-9.896,37.948-3.262,53.732
				c10.545,25.106,37.376,35.167,47.697,38.202c-7.612,37.442-2.896,68.067,14.136,91.288c13.907,18.97,33.638,29.508,51.78,35.372
				c-4.59,11.432-4.682,30.81-2.409,39.269L737.551,515.755z M464.615,493.781c21.199,18.099,25.272,48.502,25.797,65.278
				l-51.842,13.897c-1.324-0.386-2.728-0.577-4.17-0.545c-0.092,0.008-1.807,0.028-4.656-0.112
				c-5.842-15.634-19.584-50.579-40.185-92C422.563,474.914,447.77,479.398,464.615,493.781z M298.892,402.17
				c4.205,6.078,8.393,12.368,12.573,18.891c3.134,4.898,6.193,9.828,9.181,14.758c-7.396-3.499-16.16-9.394-19.979-18.595
				C298.826,412.781,298.237,407.752,298.892,402.17z M347.938,484.744c15.141,29.338,27.079,56.27,35.266,76.001
				c-8.992-4.564-17.518-10.895-23.96-19.72C348.937,526.904,345.194,508.045,347.938,484.744z"/>
			
				<linearGradient id="SVGID_00000020366828598606399270000002041334458167224981_" gradientUnits="userSpaceOnUse" x1="-431.4229" y1="599.2316" x2="-449.8009" y2="385.8025" gradientTransform="matrix(1.3434 -0.36 0.36 1.3434 849.6171 -378.4546)">
				<stop  offset="0" style="stop-color:#C8C8CD"/>
				<stop  offset="0.71" style="stop-color:#7B787B"/>
				<stop  offset="1" style="stop-color:#5A5658"/>
			</linearGradient>
			<path style="fill:url(#SVGID_00000020366828598606399270000002041334458167224981_);" d="M114.473,288.143
				c34.981-7.639,69.584,1.389,105.585,27.917c19.922,14.677,40.059,34.752,59.849,59.657l2.09,2.626l-1.349,3.073
				c-6.989,15.876-8.774,30.362-5.346,43.174c0.568,2.1,1.269,4.157,2.115,6.168c9.55,22.721,34.043,32.053,44.131,35.006
				l4.909,1.44l-1.024,5.012c-4.544,22.388-4.523,42.201,0.047,59.242c2.737,10.225,7.115,19.458,13.12,27.653
				c11.189,15.246,27.674,26.465,49.011,33.363l5.67,1.826l-2.217,5.541c-3.245,8.083-3.935,21.118-3.112,29.863
				c11.77-3.907,328.115-108.796,339.222-112.477c-3.814-5.794-10.996-8.831-18.055-6.939l-199.055,53.337l-0.477-6.727
				c-0.584-8.175-1.877-17.5-4.434-27.065c-4.545-16.931-13.076-34.635-28.727-48.055c-23.529-20.188-57.807-25.909-101.871-17.033
				l-4.053,0.823l-1.948-3.641C311.516,355.529,220.2,235.414,107.241,261.15C109.068,267.966,112.795,281.863,114.473,288.143z
				 M315.482,445.658c-11.244-5.324-19.101-12.761-22.728-21.496l0,0c-2.196-5.294-2.926-11.3-2.165-17.831l1.714-14.659
				l8.389,12.142c4.373,6.319,8.638,12.73,12.685,19.059l19.237,30.95L315.482,445.658z M341.624,527.117
				c-2.992-11.169-3.667-23.94-1.988-38.215l2.13-18.067l8.339,16.159c15.774,30.558,27.986,58.425,35.463,76.429l5.771,13.905
				l-13.43-6.814c-10.875-5.518-19.599-12.711-25.934-21.395C347.274,542.679,343.819,535.334,341.624,527.117z M426.695,582.666
				l-3.758-0.093l-1.184-3.519c-6.242-16.716-19.744-50.831-39.95-91.472l-3.358-6.744l7.44-1.218
				c34.71-5.659,61.477-0.71,79.565,14.739c22.865,19.522,27.195,51.82,27.744,69.336l0.137,4.413l-57.598,15.43l-1.486-0.425
				c-0.813-0.235-1.654-0.345-2.512-0.323h-0.121h0.168L426.695,582.666z"/>
			
				<linearGradient id="SVGID_00000118384742174905982980000005661945593290691247_" gradientUnits="userSpaceOnUse" x1="-442.0216" y1="450.4533" x2="-382.7357" y2="373.975" gradientTransform="matrix(1.3434 -0.36 0.36 1.3434 849.6171 -378.4546)">
				<stop  offset="0" style="stop-color:#E8E9EC"/>
				<stop  offset="0.565" style="stop-color:#99989A"/>
				<stop  offset="1" style="stop-color:#5A5658"/>
			</linearGradient>
			<path style="fill:url(#SVGID_00000118384742174905982980000005661945593290691247_);" d="M124.044,272.024
				c34.835-6.036,69.258,3.701,104.869,29.934c20.314,14.974,40.804,35.393,60.904,60.683c0,0,3.946,4.97,4.099,5.152
				c0.01-0.072,0.122-1.035,0.122-1.035l16.782,24.275c4.408,6.369,8.709,12.843,12.797,19.224c0,0,14.841,23.867,20.258,32.592
				c0-0.01,0.04-0.345,0.04-0.345s1.055,2.05,1.223,2.375c3.697,5.953,7.78,12.515,7.78,12.515s-1.577-0.761-1.75-0.831
				c4.636,8.978,9.435,18.272,9.435,18.272c15.854,30.717,28.14,58.733,35.656,76.831l11.544,27.825l-26.856-13.633
				c-11.666-5.913-21.055-13.673-27.911-23.078c-5.113-7.01-8.866-14.961-11.24-23.817c-3.175-11.862-3.895-25.342-2.13-40.324
				c0,0,1.836-15.623,3.069-26.1c-10.065-4.789-24.083-11.464-24.083-11.464c-12.513-5.935-21.327-14.365-25.486-24.397l0,0
				c-0.608-1.47-1.126-2.991-1.542-4.553c-1.334-4.972-1.674-10.349-1.01-16.049c0,0,2.957-25.33,3.257-27.896
				c-0.229,0.506-2.582,5.861-2.582,5.861c-6.462,14.68-8.146,27.948-5.047,39.522c0.498,1.847,1.116,3.661,1.857,5.428
				c8.627,20.521,31.238,29.094,40.565,31.822l9.814,2.87l-2.039,10.022c-4.373,21.517-4.373,40.485-0.03,56.699
				c2.566,9.564,6.643,18.186,12.233,25.795c10.478,14.293,26.029,24.844,46.225,31.366l11.353,3.66l-4.443,11.069
				c-2.13,5.314-3.015,13.236-3.055,20.195c23.252-7.708,293.305-97.238,321.797-106.697c-1.43-0.201-2.932-0.142-4.412,0.255
				L510.541,561.13l-0.953-13.45c-0.559-7.871-1.795-16.83-4.256-26.01c-4.297-16.039-12.324-32.718-26.973-45.285
				c-22.164-19.01-54.853-24.325-97.154-15.794l-8.1,1.632l-3.906-7.283c-55.147-102.87-142.533-218.947-249.527-199.238
				C121.498,262.529,122.325,265.612,124.044,272.024z M431.977,578.608l-7.537-0.172l-2.344-7.05
				c-6.209-16.615-19.629-50.527-39.723-90.936l-6.717-13.511l14.887-2.424c36.397-5.946,64.684-0.558,84.073,15.997
				c24.494,20.905,29.121,54.964,29.691,73.394l0.275,8.815l-63.354,16.98l-2.973-0.861c-0.27-0.08-0.555-0.111-0.846-0.111
				l-0.244,0.011l0.338-0.011L431.977,578.608z"/>
			<g>
				<path d="M467.824,588.854c8.855,33.038-10.73,66.959-43.748,75.808c-33.001,8.844-66.932-10.734-75.789-43.773
					c-8.84-32.999,10.753-66.941,43.752-75.785C425.059,536.258,458.988,555.856,467.824,588.854z"/>
				
					<linearGradient id="SVGID_00000058579825341438709890000001556562216709901246_" gradientUnits="userSpaceOnUse" x1="3.3453" y1="1060.2411" x2="3.3453" y2="957.8659" gradientTransform="matrix(0.3813 -0.102 0.102 0.3813 308.7839 238.8554)">
					<stop  offset="0.0057" style="stop-color:#B0B4BC"/>
					<stop  offset="1" style="stop-color:#231F20"/>
				</linearGradient>
				<path style="fill:url(#SVGID_00000058579825341438709890000001556562216709901246_);" d="M415.512,632.696
					c-14.466,3.875-29.316-3.784-34.784-17.316c0.157,1.189,0.396,2.386,0.71,3.56c4.19,15.653,20.287,24.955,35.951,20.755
					c15.668-4.199,24.955-20.307,20.76-35.949c-0.314-1.177-0.711-2.323-1.16-3.439C439.01,614.763,429.982,628.82,415.512,632.696z
					"/>
				
					<linearGradient id="SVGID_00000010295136566079858770000012229496131665836179_" gradientUnits="userSpaceOnUse" x1="-4.7133" y1="686.6223" x2="-1.1668" y2="809.5754" gradientTransform="matrix(0.5337 -0.1428 0.1428 0.5337 298.6142 191.497)">
					<stop  offset="0.0057" style="stop-color:#B0B4BC"/>
					<stop  offset="1" style="stop-color:#231F20"/>
				</linearGradient>
				<path style="fill:url(#SVGID_00000010295136566079858770000012229496131665836179_);" d="M399.059,571.304
					c26.252-7.028,53.164,6.453,63.734,30.616c-0.309-2.68-0.811-5.386-1.531-8.064c-7.752-28.941-37.504-46.107-66.435-38.356
					c-28.94,7.76-46.108,37.502-38.353,66.435c0.715,2.677,1.628,5.272,2.709,7.75C356.251,603.473,372.826,578.346,399.059,571.304
					z"/>
				
					<radialGradient id="SVGID_00000123440588115355038190000001257687688876211886_" cx="22.3997" cy="679.1819" r="33.3341" fx="41.0263" fy="667.4178" gradientTransform="matrix(0.7531 -0.2015 0.2015 0.7531 256.0962 102.852)" gradientUnits="userSpaceOnUse">
					<stop  offset="0.2486" style="stop-color:#FFFFFF"/>
					<stop  offset="1" style="stop-color:#869096"/>
				</radialGradient>
				<path style="fill:url(#SVGID_00000123440588115355038190000001257687688876211886_);" d="M433.146,598.146
					c3.715,13.866-4.508,28.107-18.365,31.821c-13.847,3.702-28.088-4.514-31.8-18.372c-3.713-13.856,4.513-28.09,18.354-31.801
					C415.193,576.083,429.434,584.299,433.146,598.146z"/>
			</g>
			<path style="fill:#50595F;" d="M57.998,262.639c-11.017,6.432-14.719,20.522-8.349,31.569
				c6.375,11.046,20.526,14.831,31.604,8.511c0.376-0.213,37.821-21.22,76.034-10.935c12.355,3.337,25.071-3.987,28.394-16.343
				c3.326-12.355-3.992-25.076-16.348-28.403C112.11,231.641,60.178,261.362,57.998,262.639z"/>
			<path style="fill:#8D97A1;" d="M63.343,276.923c2.1-1.228,52.069-29.844,107.081-15.034c4.417,1.197,8.114,3.997,10.473,7.893
				c0.071-3.175-0.705-6.32-2.328-9.15c-2.349-4.078-6.143-6.989-10.682-8.216c-55.016-14.811-104.985,13.805-107.09,15.033
				c-8.318,4.849-11.159,15.611-6.33,23.979c0.065,0.112,0.142,0.214,0.213,0.326C54.802,285.829,57.886,280.107,63.343,276.923z"/>
		</g>
	</g>
</g>
</svg>
